<svg width="17" height="14" viewBox="0 0 17 14" fill="none" xmlns="http://www.w3.org/2000/svg">
<path d="M4.37525 14H1.07852V4.65292H4.37525V14ZM2.72511 3.37789C1.67092 3.37789 0.815857 2.60912 0.815857 1.68097C0.815857 1.23515 1.01701 0.80759 1.37506 0.492346C1.73312 0.177102 2.21874 0 2.72511 0C3.23147 0 3.7171 0.177102 4.07515 0.492346C4.43321 0.80759 4.63436 1.23515 4.63436 1.68097C4.63436 2.60912 3.77894 3.37789 2.72511 3.37789ZM16.7139 14H13.4242V9.4499C13.4242 8.3655 13.3994 6.97484 11.7102 6.97484C9.99616 6.97484 9.73351 8.15299 9.73351 9.37177V14H6.44032V4.65292H9.60218V5.92795H9.64832C10.0885 5.19355 11.1636 4.41854 12.7676 4.41854C16.1041 4.41854 16.7174 6.35295 16.7174 8.86551V14H16.7139Z" fill="#355EFC"></path>
</svg>
