<svg width="23" height="20" viewBox="0 0 23 20" fill="none" xmlns="http://www.w3.org/2000/svg">
<path d="M20.6422 0H15.1534C14.0171 0 13.0951 0.926299 13.0951 2.06802V7.58272C13.0951 8.72444 14.0171 9.65074 15.1534 9.65074H18.5839V12.4081C18.5839 13.9289 17.3532 15.1654 15.8395 15.1654H15.4965C14.9261 15.1654 14.4673 15.6264 14.4673 16.1995V18.2675C14.4673 18.8405 14.9261 19.3015 15.4965 19.3015H15.8395C19.6302 19.3015 22.7004 16.2167 22.7004 12.4081V2.06802C22.7004 0.926299 21.7785 0 20.6422 0ZM8.29248 0H2.80373C1.66739 0 0.745453 0.926299 0.745453 2.06802V7.58272C0.745453 8.72444 1.66739 9.65074 2.80373 9.65074H6.2342V12.4081C6.2342 13.9289 5.00352 15.1654 3.48983 15.1654H3.14678C2.57646 15.1654 2.11764 15.6264 2.11764 16.1995V18.2675C2.11764 18.8405 2.57646 19.3015 3.14678 19.3015H3.48983C7.28049 19.3015 10.3508 16.2167 10.3508 12.4081V2.06802C10.3508 0.926299 9.42882 0 8.29248 0Z" fill="#355EFC"></path>
</svg>
