<svg width="16" height="14" viewBox="0 0 16 14" fill="none" xmlns="http://www.w3.org/2000/svg">
<path d="M14.2948 3.48905C14.3048 3.64217 14.3048 3.79532 14.3048 3.94844C14.3048 8.61873 11.0537 14 5.1115 14C3.28083 14 1.58023 13.4203 0.149704 12.4141C0.409807 12.4469 0.659872 12.4578 0.929983 12.4578C2.4405 12.4578 3.83103 11.9 4.94143 10.9485C3.52092 10.9156 2.33048 9.89845 1.92033 8.49844C2.12042 8.53123 2.32048 8.55311 2.53057 8.55311C2.82067 8.55311 3.11079 8.50934 3.38087 8.43282C1.90034 8.10467 0.789909 6.68281 0.789909 4.96562V4.92189C1.22005 5.18439 1.72027 5.34845 2.25042 5.3703C1.38011 4.73591 0.809924 3.65311 0.809924 2.4281C0.809924 1.77186 0.969952 1.1703 1.25007 0.645296C2.84065 2.78904 5.23153 4.18902 7.91247 4.34217C7.86246 4.07967 7.83244 3.80626 7.83244 3.53282C7.83244 1.58592 9.27297 0 11.0636 0C11.9939 0 12.8342 0.426561 13.4245 1.11562C14.1547 0.962507 14.855 0.66718 15.4752 0.262502C15.2351 1.08283 14.7249 1.7719 14.0547 2.20937C14.7049 2.13284 15.3352 1.93592 15.9153 1.66251C15.4753 2.36248 14.925 2.9859 14.2948 3.48905Z" fill="#355EFC"></path>
</svg>
